<svg width="17" height="17" viewBox="0 0 17 17" fill="none" xmlns="http://www.w3.org/2000/svg">
<path d="M12.4855 0C14.9786 0.000169896 17 2.02136 17 4.51446V12.4855C16.9998 14.9785 14.9785 16.9998 12.4855 17H4.51446C2.02136 17 0.000169896 14.9786 0 12.4855V4.51446C0 2.02125 2.02125 0 4.51446 0H12.4855ZM4.51446 1.05785C2.60549 1.05785 1.05785 2.60549 1.05785 4.51446V12.4855C1.05802 14.3944 2.60559 15.9421 4.51446 15.9421H12.4855C14.3943 15.942 15.942 14.3943 15.9421 12.4855V4.51446C15.9421 2.60559 14.3944 1.05802 12.4855 1.05785H4.51446ZM6.82231 5.16529C7.51626 4.80525 8.30621 4.67357 9.07955 4.78822C9.86845 4.90522 10.5993 5.27284 11.1632 5.83678C11.727 6.4007 12.0948 7.13164 12.2118 7.92045C12.3263 8.69369 12.1937 9.48385 11.8337 10.1777C11.4736 10.8714 10.9038 11.4337 10.2056 11.7851C9.5073 12.1366 8.71604 12.2594 7.94421 12.1353C7.17237 12.0111 6.45883 11.6468 5.90599 11.094C5.35315 10.5412 4.9889 9.82769 4.86467 9.05579C4.74048 8.28401 4.8625 7.49271 5.21384 6.79442C5.56537 6.09602 6.1283 5.5254 6.82231 5.16529ZM8.92459 5.83471C8.37141 5.75268 7.80633 5.84686 7.30992 6.10434C6.81341 6.36197 6.41058 6.76998 6.15909 7.26963C5.90765 7.7692 5.82029 8.33522 5.90909 8.8874C5.99797 9.43964 6.2584 9.95055 6.65393 10.3461C7.04935 10.7414 7.55953 11.002 8.11157 11.0909C8.66383 11.1798 9.23073 11.0924 9.73037 10.8409C10.2299 10.5894 10.637 10.1865 10.8946 9.69008C11.1522 9.19368 11.2472 8.62862 11.1653 8.07541C11.0816 7.51111 10.8186 6.98814 10.4153 6.58471C10.0119 6.18128 9.48895 5.91843 8.92459 5.83471ZM12.8926 3.58678C13.1846 3.58686 13.4214 3.82369 13.4215 4.1157C13.4215 4.40777 13.1846 4.64455 12.8926 4.64463H12.8833C12.5914 4.64436 12.3543 4.40766 12.3543 4.1157C12.3544 3.8238 12.5914 3.58704 12.8833 3.58678H12.8926Z" fill="white"/>
</svg>
